<svg width="80" height="62" viewBox="0 0 80 62" fill="none" xmlns="http://www.w3.org/2000/svg">
<path d="M48.3989 50.0193H42.8421V31.6079C42.8421 31.2735 42.5722 31 42.2422 31H37.7428C37.4128 31 37.1429 31.2735 37.1429 31.6079V50.0193H31.6011C31.0987 50.0193 30.8212 50.6044 31.1287 50.9995L39.5276 61.7668C39.5837 61.8394 39.6554 61.8982 39.7372 61.9386C39.8191 61.979 39.9089 62 40 62C40.0911 62 40.1809 61.979 40.2628 61.9386C40.3446 61.8982 40.4163 61.8394 40.4724 61.7668L48.8713 50.9995C49.1788 50.6044 48.9013 50.0193 48.3989 50.0193V50.0193Z" fill="#ED4C5C"/>
<path d="M63.3906 24.1915C59.8125 14.7288 50.6953 8 40.0156 8C29.3359 8 20.2187 14.721 16.6406 24.1837C9.94531 25.9462 5 32.064 5 39.3333C5 47.9892 11.9922 55 20.6172 55H23.75C24.0938 55 24.375 54.718 24.375 54.3733V49.6733C24.375 49.3287 24.0938 49.0467 23.75 49.0467H20.6172C17.9844 49.0467 15.5078 47.997 13.6641 46.0935C11.8281 44.1978 10.8516 41.6442 10.9375 38.9965C11.0078 36.9285 11.7109 34.9858 12.9844 33.3487C14.2891 31.6802 16.1172 30.466 18.1484 29.9255L21.1094 29.15L22.1953 26.283C22.8672 24.497 23.8047 22.8285 24.9844 21.3167C26.149 19.8182 27.5286 18.501 29.0781 17.4078C32.2891 15.144 36.0703 13.9455 40.0156 13.9455C43.9609 13.9455 47.7422 15.144 50.9531 17.4078C52.5078 18.5045 53.8828 19.8205 55.0469 21.3167C56.2266 22.8285 57.1641 24.5048 57.8359 26.283L58.9141 29.1422L61.8672 29.9255C66.1016 31.0692 69.0625 34.931 69.0625 39.3333C69.0625 41.9262 68.0547 44.3702 66.2266 46.2032C65.33 47.1073 64.2635 47.8242 63.0888 48.3123C61.914 48.8004 60.6544 49.05 59.3828 49.0467H56.25C55.9062 49.0467 55.625 49.3287 55.625 49.6733V54.3733C55.625 54.718 55.9062 55 56.25 55H59.3828C68.0078 55 75 47.9892 75 39.3333C75 32.0718 70.0703 25.9618 63.3906 24.1915Z" fill="#ED4C5C"/>
</svg>
